<svg width="82" height="82" viewBox="0 0 82 82" fill="none" xmlns="http://www.w3.org/2000/svg">
<path d="M80.8063 43.3099L67.6263 30.1299C67.0521 29.5556 66.0404 29.5556 65.4661 30.1299L39.0131 56.5829C37.0951 58.5009 34.5443 59.5556 31.8334 59.5556C29.1225 59.5556 26.5717 58.5009 24.6537 56.5829C20.6967 52.622 20.6967 46.1809 24.6537 42.2239L51.1067 15.7709C51.7044 15.1732 51.7044 14.2084 51.1067 13.6107L37.9267 0.430665C37.3525 -0.143555 36.3408 -0.143555 35.7665 0.430665L9.3135 26.8837C-3.1045 39.3017 -3.1045 59.5047 9.3135 71.9187C15.3291 77.9343 23.3255 81.2468 31.8335 81.2468C40.3415 81.2468 48.3375 77.9343 54.3535 71.9187L80.8065 45.4657C81.4042 44.868 81.4042 43.9032 80.8065 43.3055L80.8063 43.3099ZM36.8533 3.67286L47.8733 14.6929L40.7366 21.8296L29.7166 10.8096L36.8533 3.67286ZM52.1973 69.7629C46.7598 75.2004 39.5293 78.1965 31.8383 78.1965C24.1469 78.1965 16.9203 75.2004 11.4793 69.7629C0.2523 58.5359 0.2523 40.2709 11.4793 29.0479L27.5573 12.9699L38.5773 23.9899L22.5033 40.0679C17.3549 45.2163 17.3549 53.5989 22.5033 58.7479C24.9994 61.244 28.3158 62.6151 31.8431 62.6151C35.3704 62.6151 38.6869 61.2401 41.1829 58.7479L57.2609 42.6699L68.2809 53.6899L52.2069 69.7679L52.1973 69.7629ZM70.4353 51.5249L59.4153 40.5049L66.552 33.3682L77.572 44.3882L70.4353 51.5249Z" fill="white"/>
</svg>
