<svg width="164" height="26" viewBox="0 0 164 26" fill="none" xmlns="http://www.w3.org/2000/svg">
<g clip-path="url(#clip0_198_3508)">
<path d="M50.7603 7.63662H55.4509C56.7655 7.63662 57.7675 7.95571 58.4567 8.59389C59.1587 9.23206 59.5097 10.1 59.5097 11.1976C59.5097 11.9634 59.3182 12.5761 58.9353 13.0356C58.5652 13.4823 58.0291 13.8078 57.3271 14.012V14.1269C58.1568 14.3311 58.7949 14.6885 59.2417 15.199C59.7011 15.7095 59.9309 16.4179 59.9309 17.3241C59.9309 18.4473 59.5735 19.3407 58.8588 20.0044C58.1568 20.6681 57.1676 21 55.8912 21H50.7603V7.63662ZM55.0106 18.9897C55.6998 18.9897 56.2039 18.8749 56.523 18.6451C56.8421 18.4154 57.0017 17.9942 57.0017 17.3815V16.8263C57.0017 16.2137 56.8421 15.7925 56.523 15.5628C56.2039 15.333 55.6998 15.2181 55.0106 15.2181H53.5555V18.9897H55.0106ZM54.6468 13.3036C55.3233 13.3036 55.8147 13.1951 56.121 12.9781C56.4273 12.7484 56.5805 12.34 56.5805 11.7528V11.1785C56.5805 10.5914 56.4273 10.1893 56.121 9.97234C55.8147 9.75536 55.3233 9.64687 54.6468 9.64687H53.5555V13.3036H54.6468ZM62.0677 18.7983H65.0926V9.03423H62.0677V6.83252H67.9261V18.7983H70.9511V21H62.0677V18.7983ZM77.989 21.2297C77.2232 21.2297 76.534 21.1149 75.9213 20.8851C75.3087 20.6426 74.7854 20.298 74.3514 19.8513C73.9302 19.4046 73.6048 18.8621 73.375 18.2239C73.1453 17.5858 73.0304 16.8646 73.0304 16.0605C73.0304 15.2564 73.1453 14.5353 73.375 13.8971C73.6048 13.2589 73.9302 12.7165 74.3514 12.2698C74.7854 11.823 75.3087 11.4848 75.9213 11.2551C76.534 11.0126 77.2232 10.8913 77.989 10.8913C78.7548 10.8913 79.4441 11.0126 80.0567 11.2551C80.6694 11.4848 81.1863 11.823 81.6075 12.2698C82.0414 12.7165 82.3733 13.2589 82.603 13.8971C82.8328 14.5353 82.9477 15.2564 82.9477 16.0605C82.9477 16.8646 82.8328 17.5858 82.603 18.2239C82.3733 18.8621 82.0414 19.4046 81.6075 19.8513C81.1863 20.298 80.6694 20.6426 80.0567 20.8851C79.4441 21.1149 78.7548 21.2297 77.989 21.2297ZM77.989 19.1238C78.6272 19.1238 79.125 18.9259 79.4824 18.5303C79.8397 18.1346 80.0184 17.573 80.0184 16.8455V15.2756C80.0184 14.5481 79.8397 13.9865 79.4824 13.5908C79.125 13.1951 78.6272 12.9973 77.989 12.9973C77.3509 12.9973 76.8531 13.1951 76.4957 13.5908C76.1383 13.9865 75.9596 14.5481 75.9596 15.2756V16.8455C75.9596 17.573 76.1383 18.1346 76.4957 18.5303C76.8531 18.9259 77.3509 19.1238 77.989 19.1238ZM89.8708 21.2297C89.0922 21.2297 88.3902 21.1149 87.7648 20.8851C87.1521 20.6426 86.6288 20.298 86.1949 19.8513C85.7737 19.4046 85.4482 18.8621 85.2185 18.2239C84.9887 17.5858 84.8738 16.8646 84.8738 16.0605C84.8738 15.2564 84.9887 14.5353 85.2185 13.8971C85.4482 13.2589 85.7737 12.7165 86.1949 12.2698C86.6288 11.823 87.1521 11.4848 87.7648 11.2551C88.3902 11.0126 89.0858 10.8913 89.8516 10.8913C90.9365 10.8913 91.8044 11.1147 92.4554 11.5614C93.1191 11.9954 93.6232 12.5761 93.9678 13.3036L91.7853 14.4906C91.6066 14.1077 91.3705 13.7886 91.0769 13.5334C90.7961 13.2781 90.3877 13.1505 89.8516 13.1505C89.2007 13.1505 88.6965 13.3419 88.3391 13.7248C87.9945 14.095 87.8222 14.6055 87.8222 15.2564V16.8646C87.8222 17.5156 87.9945 18.0325 88.3391 18.4154C88.6965 18.7855 89.2134 18.9706 89.8899 18.9706C90.4387 18.9706 90.8663 18.843 91.1726 18.5877C91.4917 18.3324 91.7597 18.0006 91.9767 17.5921L94.121 18.8174C93.7636 19.545 93.2403 20.1321 92.5511 20.5788C91.8746 21.0128 90.9812 21.2297 89.8708 21.2297ZM96.4492 6.83252H99.2827V14.8735H99.4167L100.738 13.3228L102.805 11.1211H106.06L102.231 15.0267L106.462 21H103.093L100.221 16.6349L99.2827 17.573V21H96.4492V6.83252ZM112.217 21.2297C111.094 21.2297 110.118 21.0447 109.288 20.6745C108.459 20.3044 107.788 19.8002 107.278 19.1621L108.944 17.3241C109.429 17.8602 109.958 18.2558 110.533 18.5111C111.12 18.7664 111.713 18.894 112.313 18.894C113.002 18.894 113.526 18.7409 113.883 18.4345C114.24 18.1282 114.419 17.6879 114.419 17.1135C114.419 16.6413 114.279 16.2839 113.998 16.0414C113.73 15.7989 113.27 15.6266 112.619 15.5245L111.222 15.2947C110.022 15.0905 109.154 14.6502 108.618 13.9737C108.082 13.2845 107.814 12.4485 107.814 11.4657C107.814 10.1766 108.235 9.18101 109.078 8.47901C109.92 7.76426 111.101 7.40688 112.619 7.40688C113.653 7.40688 114.553 7.56642 115.319 7.88551C116.085 8.2046 116.704 8.63856 117.176 9.18739L115.549 11.0062C115.191 10.6105 114.77 10.3042 114.285 10.0872C113.8 9.85747 113.251 9.7426 112.639 9.7426C111.35 9.7426 110.705 10.2723 110.705 11.3317C110.705 11.7911 110.845 12.1358 111.126 12.3655C111.42 12.5952 111.892 12.7675 112.543 12.8824L113.941 13.1313C115.025 13.3228 115.861 13.7312 116.449 14.3566C117.036 14.982 117.329 15.8244 117.329 16.8838C117.329 17.5092 117.221 18.0899 117.004 18.626C116.787 19.1493 116.461 19.6088 116.027 20.0044C115.593 20.3874 115.057 20.6873 114.419 20.9043C113.794 21.1213 113.06 21.2297 112.217 21.2297ZM124.52 9.85747C123.882 9.85747 123.435 9.72984 123.18 9.47457C122.938 9.20653 122.816 8.88745 122.816 8.5173V7.96209C122.816 7.57919 122.938 7.2601 123.18 7.00483C123.435 6.74956 123.882 6.62192 124.52 6.62192C125.159 6.62192 125.599 6.74956 125.841 7.00483C126.097 7.2601 126.224 7.57919 126.224 7.96209V8.5173C126.224 8.88745 126.097 9.20653 125.841 9.47457C125.599 9.72984 125.159 9.85747 124.52 9.85747ZM119.964 18.7983H123.104V13.3228H119.964V11.1211H125.937V18.7983H128.847V21H119.964V18.7983ZM140.805 21.9956C140.805 23.0422 140.365 23.8144 139.484 24.3121C138.604 24.8099 137.219 25.0588 135.33 25.0588C134.385 25.0588 133.607 25.0014 132.994 24.8865C132.382 24.7844 131.89 24.6312 131.52 24.427C131.163 24.2228 130.907 23.9803 130.754 23.6995C130.614 23.4187 130.544 23.1124 130.544 22.7805C130.544 22.2189 130.71 21.7913 131.041 21.4978C131.373 21.217 131.839 21 132.439 20.8468V20.732C132.018 20.6043 131.68 20.4256 131.424 20.1959C131.182 19.9534 131.061 19.6152 131.061 19.1812C131.061 18.6962 131.22 18.3388 131.539 18.1091C131.871 17.8793 132.305 17.7006 132.841 17.573V17.4581C132.254 17.1773 131.794 16.7817 131.463 16.2711C131.143 15.7606 130.984 15.1416 130.984 14.414C130.984 13.8397 131.086 13.3355 131.29 12.9016C131.494 12.4548 131.782 12.0847 132.152 11.7911C132.535 11.4976 132.988 11.2742 133.511 11.1211C134.034 10.9679 134.622 10.8913 135.272 10.8913C135.898 10.8913 136.479 10.9615 137.015 11.1019V10.5658C137.015 10.1829 137.149 9.86385 137.417 9.60858C137.685 9.35331 138.055 9.22568 138.527 9.22568H140.269V11.2934H137.895V11.4657C138.431 11.7465 138.846 12.1358 139.14 12.6335C139.446 13.1185 139.599 13.712 139.599 14.414C139.599 14.9884 139.497 15.4926 139.293 15.9265C139.089 16.3605 138.795 16.7306 138.412 17.0369C138.029 17.3305 137.57 17.5539 137.034 17.707C136.511 17.8602 135.923 17.9368 135.272 17.9368C134.979 17.9368 134.698 17.924 134.43 17.8985C134.162 17.8602 133.907 17.8091 133.664 17.7453C133.524 17.8219 133.403 17.9176 133.301 18.0325C133.211 18.1474 133.167 18.2941 133.167 18.4728C133.167 18.626 133.205 18.7472 133.281 18.8366C133.358 18.9259 133.46 18.9961 133.588 19.0472C133.728 19.0855 133.888 19.111 134.066 19.1238C134.245 19.1365 134.43 19.1429 134.622 19.1429H136.881C137.583 19.1429 138.183 19.2131 138.68 19.3535C139.178 19.4939 139.587 19.6917 139.906 19.947C140.225 20.2023 140.454 20.5022 140.595 20.8468C140.735 21.1915 140.805 21.5744 140.805 21.9956ZM138.125 22.2062C138.125 21.9509 138.023 21.7467 137.819 21.5935C137.615 21.4531 137.225 21.3829 136.651 21.3829H133.262C133.007 21.5999 132.879 21.8679 132.879 22.187C132.879 22.4933 133.007 22.7422 133.262 22.9337C133.53 23.1379 133.977 23.24 134.602 23.24H136.268C136.919 23.24 137.391 23.1506 137.685 22.972C137.978 22.7933 138.125 22.538 138.125 22.2062ZM135.272 16.1371C135.847 16.1371 136.262 15.9967 136.517 15.7159C136.785 15.4351 136.919 15.0777 136.919 14.6438V14.1843C136.919 13.7503 136.785 13.393 136.517 13.1122C136.262 12.8314 135.847 12.691 135.272 12.691C134.711 12.691 134.302 12.8314 134.047 13.1122C133.792 13.393 133.664 13.7503 133.664 14.1843V14.6438C133.664 15.0777 133.792 15.4351 134.047 15.7159C134.302 15.9967 134.711 16.1371 135.272 16.1371ZM142.368 6.83252H145.201V12.9207H145.316C145.431 12.6399 145.572 12.3783 145.737 12.1358C145.903 11.8932 146.101 11.6826 146.331 11.504C146.573 11.3125 146.848 11.1657 147.154 11.0636C147.473 10.9487 147.831 10.8913 148.226 10.8913C148.699 10.8913 149.133 10.9743 149.528 11.1402C149.924 11.2934 150.262 11.5295 150.543 11.8486C150.824 12.1677 151.041 12.5569 151.194 13.0164C151.36 13.4759 151.443 14.0056 151.443 14.6055V21H148.609V14.9884C148.609 13.712 148.054 13.0739 146.944 13.0739C146.727 13.0739 146.51 13.1058 146.293 13.1696C146.088 13.2207 145.903 13.31 145.737 13.4376C145.572 13.5525 145.438 13.6993 145.335 13.878C145.246 14.0567 145.201 14.2673 145.201 14.5098V21H142.368V6.83252ZM159.113 21C158.091 21 157.332 20.732 156.834 20.1959C156.336 19.6598 156.088 18.977 156.088 18.1474V13.3228H153.407V11.1211H155.149C155.571 11.1211 155.871 11.0381 156.049 10.8722C156.228 10.7062 156.317 10.3999 156.317 9.9532V7.63662H158.921V11.1211H162.769V13.3228H158.921V18.7983H162.769V21H159.113Z" fill="white"/>
<path d="M44.0625 25.7679L31.4732 0.589279L18.8839 0.589279L6.29464 25.7679" stroke="white" stroke-width="0.78683"/>
<path d="M44.0625 0.589279L31.4732 25.7679H18.8839L6.29464 0.589279" stroke="white" stroke-width="0.78683"/>
<path d="M31.4736 25.7679L25.179 13.1786" stroke="white" stroke-width="0.78683"/>
<path d="M31.4736 0.589279L25.179 13.1786" stroke="white" stroke-width="0.78683"/>
<path d="M12.5894 13.1786H25.1787" stroke="white" stroke-width="0.78683"/>
</g>
<defs>
<clipPath id="clip0_198_3508">
<rect width="164" height="26" fill="white"/>
</clipPath>
</defs>
</svg>
