<?xml version="1.0" encoding="UTF-8"?>
<svg width="512" height="512" viewBox="0 0 512 512" fill="none" xmlns="http://www.w3.org/2000/svg">
    <!-- Circular background -->
    <circle cx="256" cy="256" r="240" fill="#FFD700"/>
    
    <!-- Trump silhouette -->
    <path d="M256 80C167.2 80 96 151.2 96 240C96 328.8 167.2 400 256 400C344.8 400 416 328.8 416 240C416 151.2 344.8 80 256 80ZM256 360C189.6 360 136 306.4 136 240C136 173.6 189.6 120 256 120C322.4 120 376 173.6 376 240C376 306.4 322.4 360 256 360Z" fill="#C41E3A"/>
    
    <!-- Dollar sign -->
    <path d="M280 180V160H240V180H220V320H240V340H280V320H300V280H260V300H240V200H280V220H320V180H280Z" fill="#C41E3A"/>
</svg> 